<svg width="19" height="21" viewBox="0 0 19 21" fill="none" xmlns="http://www.w3.org/2000/svg">
<path d="M14 21C12.6167 21 11.4375 20.5125 10.4625 19.5375C9.4875 18.5625 9 17.3833 9 16C9 14.6167 9.4875 13.4375 10.4625 12.4625C11.4375 11.4875 12.6167 11 14 11C15.3833 11 16.5625 11.4875 17.5375 12.4625C18.5125 13.4375 19 14.6167 19 16C19 17.3833 18.5125 18.5625 17.5375 19.5375C16.5625 20.5125 15.3833 21 14 21ZM15.675 18.375L16.375 17.675L14.5 15.8V13H13.5V16.2L15.675 18.375ZM2 20C1.45 20 0.979167 19.8042 0.5875 19.4125C0.195833 19.0208 0 18.55 0 18V4C0 3.45 0.195833 2.97917 0.5875 2.5875C0.979167 2.19583 1.45 2 2 2H6.175C6.35833 1.41667 6.71667 0.9375 7.25 0.5625C7.78333 0.1875 8.36667 0 9 0C9.66667 0 10.2625 0.1875 10.7875 0.5625C11.3125 0.9375 11.6667 1.41667 11.85 2H16C16.55 2 17.0208 2.19583 17.4125 2.5875C17.8042 2.97917 18 3.45 18 4V10.25C17.7 10.0333 17.3833 9.85 17.05 9.7C16.7167 9.55 16.3667 9.41667 16 9.3V4H14V7H4V4H2V18H7.3C7.41667 18.3667 7.55 18.7167 7.7 19.05C7.85 19.3833 8.03333 19.7 8.25 20H2ZM9 4C9.28333 4 9.52083 3.90417 9.7125 3.7125C9.90417 3.52083 10 3.28333 10 3C10 2.71667 9.90417 2.47917 9.7125 2.2875C9.52083 2.09583 9.28333 2 9 2C8.71667 2 8.47917 2.09583 8.2875 2.2875C8.09583 2.47917 8 2.71667 8 3C8 3.28333 8.09583 3.52083 8.2875 3.7125C8.47917 3.90417 8.71667 4 9 4Z" fill="#B45309"/>
</svg>
