<svg width="17" height="15" viewBox="0 0 17 15" fill="none" xmlns="http://www.w3.org/2000/svg">
<path d="M2.25 15V7.96875L0.9 9L0 7.8L2.25 6.075V3.75H3.75V4.93125L8.25 1.5L16.5 7.8L15.6 8.98125L14.25 7.96875V15H2.25ZM3.75 13.5H7.5V10.5H9V13.5H12.75V6.825L8.25 3.39375L3.75 6.825V13.5ZM2.25 3C2.25 2.375 2.46875 1.84375 2.90625 1.40625C3.34375 0.96875 3.875 0.75 4.5 0.75C4.7125 0.75 4.89062 0.678125 5.03438 0.534375C5.17813 0.390625 5.25 0.2125 5.25 0H6.75C6.75 0.625 6.53125 1.15625 6.09375 1.59375C5.65625 2.03125 5.125 2.25 4.5 2.25C4.2875 2.25 4.10938 2.32188 3.96563 2.46563C3.82188 2.60938 3.75 2.7875 3.75 3H2.25ZM3.75 13.5H7.5H9H12.75H8.25H3.75Z" fill="#2E7D32"/>
</svg>
