<svg width="11" height="17" viewBox="0 0 11 17" fill="none" xmlns="http://www.w3.org/2000/svg">
<path d="M1.87031 16.125L4.17656 4.4625C4.25156 4.1 4.42031 3.82812 4.68281 3.64687C4.94531 3.46562 5.22031 3.375 5.50781 3.375C5.79531 3.375 6.06094 3.4375 6.30469 3.5625C6.54844 3.6875 6.74531 3.875 6.89531 4.125L7.64531 5.325C7.87031 5.6875 8.16094 6.01562 8.51719 6.30937C8.87344 6.60312 9.28281 6.81875 9.74531 6.95625V5.625H10.8703V16.125H9.74531V8.5125C9.14531 8.375 8.58906 8.15625 8.07656 7.85625C7.56406 7.55625 7.12031 7.1875 6.74531 6.75L6.29531 9L7.87031 10.5V16.125H6.37031V11.625L4.79531 10.125L3.44531 16.125H1.87031ZM2.18906 8.71875L0.595312 8.41875C0.395312 8.38125 0.239063 8.27812 0.126563 8.10938C0.0140625 7.94063 -0.0234375 7.75 0.0140625 7.5375L0.576563 4.59375C0.651563 4.19375 0.864062 3.87812 1.21406 3.64687C1.56406 3.41562 1.93906 3.3375 2.33906 3.4125L3.20156 3.58125L2.18906 8.71875ZM6.74531 3C6.33281 3 5.97969 2.85313 5.68594 2.55938C5.39219 2.26562 5.24531 1.9125 5.24531 1.5C5.24531 1.0875 5.39219 0.734375 5.68594 0.440625C5.97969 0.146875 6.33281 0 6.74531 0C7.15781 0 7.51094 0.146875 7.80469 0.440625C8.09844 0.734375 8.24531 1.0875 8.24531 1.5C8.24531 1.9125 8.09844 2.26562 7.80469 2.55938C7.51094 2.85313 7.15781 3 6.74531 3Z" fill="#2E7D32"/>
</svg>
