<svg width="15" height="14" viewBox="0 0 15 14" fill="none" xmlns="http://www.w3.org/2000/svg">
<path d="M0 13.5V12C0.475 12 0.83125 11.875 1.06875 11.625C1.30625 11.375 1.775 11.25 2.475 11.25C3.175 11.25 3.65625 11.375 3.91875 11.625C4.18125 11.875 4.5375 12 4.9875 12C5.4375 12 5.79375 11.875 6.05625 11.625C6.31875 11.375 6.8 11.25 7.5 11.25C8.2 11.25 8.68125 11.375 8.94375 11.625C9.20625 11.875 9.5625 12 10.0125 12C10.4625 12 10.8188 11.875 11.0813 11.625C11.3438 11.375 11.825 11.25 12.525 11.25C13.225 11.25 13.6937 11.375 13.9312 11.625C14.1687 11.875 14.525 12 15 12V13.5C14.2625 13.5 13.7781 13.375 13.5469 13.125C13.3156 12.875 12.975 12.75 12.525 12.75C12.075 12.75 11.7188 12.875 11.4563 13.125C11.1938 13.375 10.7125 13.5 10.0125 13.5C9.3125 13.5 8.83125 13.375 8.56875 13.125C8.30625 12.875 7.95 12.75 7.5 12.75C7.05 12.75 6.69375 12.875 6.43125 13.125C6.16875 13.375 5.6875 13.5 4.9875 13.5C4.2875 13.5 3.80625 13.375 3.54375 13.125C3.28125 12.875 2.925 12.75 2.475 12.75C2.025 12.75 1.68438 12.875 1.45312 13.125C1.22187 13.375 0.7375 13.5 0 13.5ZM0 10.125V8.625C0.475 8.625 0.83125 8.5 1.06875 8.25C1.30625 8 1.775 7.875 2.475 7.875C3.175 7.875 3.65937 8 3.92812 8.25C4.19688 8.5 4.55 8.625 4.9875 8.625C5.4375 8.625 5.79375 8.5 6.05625 8.25C6.31875 8 6.8 7.875 7.5 7.875C8.2 7.875 8.68125 8 8.94375 8.25C9.20625 8.5 9.5625 8.625 10.0125 8.625C10.4625 8.625 10.8188 8.5 11.0813 8.25C11.3438 8 11.825 7.875 12.525 7.875C13.225 7.875 13.6937 8 13.9312 8.25C14.1687 8.5 14.525 8.625 15 8.625V10.125C14.2625 10.125 13.7781 10 13.5469 9.75C13.3156 9.5 12.975 9.375 12.525 9.375C12.075 9.375 11.7281 9.5 11.4844 9.75C11.2406 10 10.75 10.125 10.0125 10.125C9.3 10.125 8.81563 10 8.55937 9.75C8.30312 9.5 7.95 9.375 7.5 9.375C7.025 9.375 6.67188 9.5 6.44063 9.75C6.20938 10 5.725 10.125 4.9875 10.125C4.25 10.125 3.75938 10 3.51562 9.75C3.27187 9.5 2.925 9.375 2.475 9.375C2.025 9.375 1.68438 9.5 1.45312 9.75C1.22187 10 0.7375 10.125 0 10.125ZM3.675 6.3L6.16875 3.80625L5.41875 3.05625C5.00625 2.64375 4.56875 2.34375 4.10625 2.15625C3.64375 1.96875 3.075 1.875 2.4 1.875V0C3.3375 0 4.1125 0.103125 4.725 0.309375C5.3375 0.515625 5.9375 0.9125 6.525 1.5L11.325 6.3C11.1125 6.4375 10.9062 6.54688 10.7063 6.62813C10.5063 6.70938 10.275 6.75 10.0125 6.75C9.5625 6.75 9.20625 6.625 8.94375 6.375C8.68125 6.125 8.2 6 7.5 6C6.8 6 6.31875 6.125 6.05625 6.375C5.79375 6.625 5.4375 6.75 4.9875 6.75C4.725 6.75 4.49375 6.70938 4.29375 6.62813C4.09375 6.54688 3.8875 6.4375 3.675 6.3ZM11.025 0C11.55 0 11.9937 0.184375 12.3562 0.553125C12.7188 0.921875 12.9 1.3625 12.9 1.875C12.9 2.4 12.7188 2.84375 12.3562 3.20625C11.9937 3.56875 11.55 3.75 11.025 3.75C10.5 3.75 10.0563 3.56875 9.69375 3.20625C9.33125 2.84375 9.15 2.4 9.15 1.875C9.15 1.3625 9.33125 0.921875 9.69375 0.553125C10.0563 0.184375 10.5 0 11.025 0Z" fill="#2E7D32"/>
</svg>
